<svg xmlns="http://www.w3.org/2000/svg" height="48" viewBox="0 -960 960 960" width="48"><path d="M810.867-104Q687-104 560.5-162 434-220 327-326.5T162-560q-58-127-58-250.867 0-20.419 12.357-32.776Q128.714-856 149-856h159q14.389 0 24.694 10Q343-836 347-821l28.929 140.641Q377-667 374.5-655.133q-2.5 11.866-8.729 18.359L262-531q24 42 53 79.5t64 71.5q36 38 75.5 68t81.5 53l103-104q9-10 20.128-13.5T681-378l139 31q14.562 4 25.281 16.044T856-304v155q0 20.286-12.357 32.643T810.867-104ZM226-598l77-78-22.962-107H179q2 43 12.5 86.5T226-598Zm379 375q39 18 85.5 30t92.5 15v.5V-281l-103-22-75 80ZM226-598Zm379 375Z"/></svg>